<?xml version="1.0" ?><svg enable-background="new 0 0 24 24" id="color" version="1.1" viewBox="0 0 24 24" xml:space="preserve" xmlns="http://www.w3.org/2000/svg" xmlns:xlink="http://www.w3.org/1999/xlink"><circle cx="12" cy="18" fill="#607D8B" r="2"/><path d="M3.506,9.25c-0.276,0-0.552-0.114-0.749-0.337C2.391,8.5,2.43,7.867,2.843,7.501  C5.393,5.244,8.661,4,12.044,4c3.333,0,6.567,1.212,9.105,3.415c0.417,0.362,0.462,0.993,0.1,1.411  c-0.362,0.417-0.994,0.461-1.411,0.1C17.664,7.039,14.896,6,12.044,6C9.149,6,6.353,7.065,4.169,8.999  C3.979,9.167,3.742,9.25,3.506,9.25z" fill="#B0BEC5"/><path d="M1,6.22c-0.276,0-0.552-0.114-0.75-0.337c-0.366-0.414-0.327-1.045,0.086-1.412  C3.595,1.588,7.756,0,12.053,0c4.238,0,8.358,1.55,11.602,4.365c0.417,0.362,0.462,0.994,0.1,1.411  c-0.363,0.417-0.995,0.461-1.411,0.1C19.464,3.376,15.81,2,12.053,2C8.245,2,4.555,3.41,1.663,5.969C1.473,6.137,1.236,6.22,1,6.22z  " fill="#CFD8DC"/><path d="M15.486,15.34c-0.236,0-0.474-0.083-0.665-0.253c-1.574-1.402-4.069-1.402-5.644,0  c-0.413,0.367-1.046,0.329-1.412-0.082c-0.368-0.412-0.331-1.045,0.082-1.412C9.002,12.566,10.476,12,12,12s2.998,0.566,4.152,1.593  c0.413,0.367,0.449,1,0.082,1.412C16.036,15.227,15.762,15.34,15.486,15.34z" fill="#78909C"/><path d="M18.021,12.31c-0.237,0-0.475-0.084-0.666-0.254C15.872,10.73,13.969,10,12,10s-3.872,0.73-5.356,2.056  c-0.411,0.368-1.044,0.333-1.412-0.08c-0.368-0.412-0.333-1.044,0.08-1.412C7.164,8.911,9.539,8,12,8s4.836,0.911,6.688,2.564  c0.412,0.368,0.448,1,0.08,1.412C18.57,12.197,18.296,12.31,18.021,12.31z" fill="#90A4AE"/><path d="M23.25,18.5h-2c-0.414,0-0.75-0.336-0.75-0.75S20.836,17,21.25,17h2c0.414,0,0.75,0.336,0.75,0.75  S23.664,18.5,23.25,18.5z" fill="#607D8B"/><path d="M20.519,15.5c-0.26,0-0.512-0.134-0.65-0.375c-0.207-0.359-0.084-0.817,0.274-1.024l1.732-1  c0.359-0.208,0.818-0.084,1.024,0.274c0.207,0.359,0.084,0.817-0.274,1.024l-1.732,1C20.774,15.468,20.646,15.5,20.519,15.5z" fill="#607D8B"/><path d="M20.519,20.5c0.127,0,0.256,0.032,0.374,0.101l1.732,1c0.358,0.207,0.481,0.666,0.274,1.024  c-0.206,0.359-0.665,0.482-1.024,0.274l-1.732-1c-0.358-0.207-0.481-0.666-0.274-1.024C20.007,20.634,20.259,20.5,20.519,20.5z" fill="#607D8B"/><path d="M12.75,18.5h-2c-0.414,0-0.75-0.336-0.75-0.75S10.336,17,10.75,17h2c0.414,0,0.75,0.336,0.75,0.75  S13.164,18.5,12.75,18.5z" fill="#607D8B"/><path d="M13.481,15.5c-0.127,0-0.256-0.032-0.374-0.101l-1.732-1c-0.358-0.207-0.481-0.666-0.274-1.024  c0.206-0.359,0.664-0.482,1.024-0.274l1.732,1c0.358,0.207,0.481,0.666,0.274,1.024C13.993,15.366,13.741,15.5,13.481,15.5z" fill="#607D8B"/><path d="M13.481,20.5c0.26,0,0.512,0.134,0.65,0.375c0.207,0.359,0.084,0.817-0.274,1.024l-1.732,1  c-0.36,0.208-0.817,0.084-1.024-0.274s-0.084-0.817,0.274-1.024l1.732-1C13.226,20.532,13.354,20.5,13.481,20.5z" fill="#607D8B"/><path d="M23.25,18.5h-2c-0.414,0-0.75-0.336-0.75-0.75S20.836,17,21.25,17h2c0.414,0,0.75,0.336,0.75,0.75  S23.664,18.5,23.25,18.5z" fill="#607D8B"/><path d="M18.675,14h-3.35c-0.16,0-0.315-0.051-0.444-0.146C14.312,13.436,14,12.867,14,12.25  c0-1.262,1.317-2.25,3-2.25s3,0.988,3,2.25c0,0.617-0.313,1.186-0.881,1.604C18.99,13.949,18.835,14,18.675,14z" fill="#F44336"/><ellipse cx="17" cy="18" fill="#F44336" rx="5" ry="6"/></svg>