<svg width="360" height="360" viewBox="0 0 360 360" fill="none" xmlns="http://www.w3.org/2000/svg">
<path fill-rule="evenodd" clip-rule="evenodd" d="M180 21.1765C92.2828 21.1765 21.1765 92.2828 21.1765 180C21.1765 215.719 32.9726 248.675 52.8751 275.209C46.0919 258.93 42.3529 241.079 42.3529 222.353C42.3529 146.334 103.981 84.7059 180 84.7059C256.019 84.7059 317.647 146.334 317.647 222.353C317.647 241.081 313.908 258.932 307.125 275.209C327.027 248.673 338.824 215.716 338.824 180C338.824 92.2828 267.717 21.1765 180 21.1765ZM360 180C360 279.415 279.415 360 180 360C80.5849 360 0 279.415 0 180C0 80.5849 80.5849 0 180 0C279.415 0 360 80.5849 360 180ZM269.886 296.42C273.393 286.493 275.295 275.822 275.295 264.705C275.295 212.077 232.629 169.41 180.001 169.41C127.374 169.41 84.7072 212.077 84.7072 264.705C84.7072 275.822 86.6097 286.493 90.1169 296.42C73.5065 276.286 63.5307 250.492 63.5307 222.353C63.5307 158.027 115.676 105.882 180.001 105.882C244.327 105.882 296.472 158.027 296.472 222.353C296.472 250.494 286.496 276.285 269.886 296.42ZM180 338.824C139.07 338.824 105.882 305.636 105.882 264.706C105.882 223.776 139.07 190.588 180 190.588C220.93 190.588 254.118 223.776 254.118 264.706C254.118 305.636 220.93 338.824 180 338.824Z" fill="#CBF2AE"/>
</svg>
