<svg width="376" height="127" viewBox="0 0 376 127" fill="none" xmlns="http://www.w3.org/2000/svg">
<g clip-path="url(#clip0_17_12)">
<path fill-rule="evenodd" clip-rule="evenodd" d="M63.182 7.43318C32.3923 7.43318 7.43318 32.3923 7.43318 63.182C7.43318 75.7197 11.5738 87.2878 18.5598 96.6016C16.1788 90.8873 14.8664 84.6214 14.8664 78.0484C14.8664 51.3648 36.4984 29.7327 63.182 29.7327C89.8657 29.7327 111.498 51.3648 111.498 78.0484C111.498 84.6221 110.185 90.888 107.804 96.6016C114.79 87.2869 118.931 75.7188 118.931 63.182C118.931 32.3923 93.9717 7.43318 63.182 7.43318ZM126.364 63.182C126.364 98.0778 98.0778 126.364 63.182 126.364C28.2862 126.364 0 98.0778 0 63.182C0 28.2862 28.2862 0 63.182 0C98.0778 0 126.364 28.2862 126.364 63.182ZM94.7329 104.047C95.964 100.562 96.6318 96.8167 96.6318 92.9143C96.6318 74.4414 81.6554 59.465 63.1825 59.465C44.7095 59.465 29.7332 74.4414 29.7332 92.9143C29.7332 96.8167 30.401 100.562 31.632 104.047C25.8016 96.9794 22.3 87.9256 22.3 78.0484C22.3 55.4694 40.6034 37.1659 63.1825 37.1659C85.7615 37.1659 104.065 55.4694 104.065 78.0484C104.065 87.9263 100.563 96.9792 94.7329 104.047ZM63.182 118.931C48.815 118.931 37.1659 107.282 37.1659 92.9147C37.1659 78.5477 48.815 66.8986 63.182 66.8986C77.549 66.8986 89.1982 78.5477 89.1982 92.9147C89.1982 107.282 77.549 118.931 63.182 118.931Z" fill="#262626"/>
<path d="M193.644 105.238L161.543 69.6695V105.238H151.364V27.2775H161.543V63.4057L193.756 27.2775H206.619L171.274 66.3139L206.955 105.238H193.644ZM218.699 31.9753C217.357 30.6331 216.686 28.9926 216.686 27.0538C216.686 25.115 217.357 23.4745 218.699 22.1323C220.041 20.7901 221.682 20.119 223.621 20.119C225.485 20.119 227.069 20.7901 228.374 22.1323C229.679 23.4745 230.332 25.115 230.332 27.0538C230.332 28.9926 229.679 30.6331 228.374 31.9753C227.069 33.3175 225.485 33.9886 223.621 33.9886C221.682 33.9886 220.041 33.3175 218.699 31.9753ZM228.542 43.9435V105.238H218.363V43.9435H228.542ZM265.23 46.4042C269.256 44.0926 273.842 42.9368 278.987 42.9368C284.505 42.9368 289.464 44.2417 293.864 46.8516C298.263 49.4615 301.731 53.134 304.266 57.8691C306.801 62.6041 308.069 68.1035 308.069 74.3672C308.069 80.5564 306.801 86.0744 304.266 90.9214C301.731 95.7683 298.245 99.534 293.808 102.218C289.371 104.903 284.431 106.245 278.987 106.245C273.693 106.245 269.051 105.089 265.062 102.778C261.072 100.466 258.071 97.5206 256.058 93.9414V105.238H245.879V22.4679H256.058V55.3524C258.146 51.6985 261.203 48.7158 265.23 46.4042ZM294.87 62.2872C293.006 58.8571 290.489 56.2472 287.32 54.4576C284.151 52.6679 280.665 51.7731 276.862 51.7731C273.134 51.7731 269.685 52.6866 266.516 54.5135C263.347 56.3404 260.811 58.9876 258.91 62.455C257.008 65.9224 256.058 69.9305 256.058 74.4791C256.058 79.1023 257.008 83.1476 258.91 86.6151C260.811 90.0825 263.347 92.7296 266.516 94.5566C269.685 96.3835 273.134 97.2969 276.862 97.2969C280.665 97.2969 284.151 96.3835 287.32 94.5566C290.489 92.7296 293.006 90.0825 294.87 86.6151C296.735 83.1476 297.667 79.065 297.667 74.3672C297.667 69.744 296.735 65.7174 294.87 62.2872ZM375.851 43.9435V105.238H365.673V96.1784C363.734 99.3103 361.031 101.752 357.563 103.505C354.096 105.257 350.274 106.133 346.099 106.133C341.326 106.133 337.039 105.145 333.236 103.169C329.433 101.193 326.431 98.229 324.232 94.2769C322.032 90.3248 320.932 85.5152 320.932 79.848V43.9435H330.999V78.5058C330.999 84.5458 332.527 89.1877 335.585 92.4314C338.642 95.6751 342.818 97.2969 348.112 97.2969C353.555 97.2969 357.843 95.6192 360.975 92.2636C364.107 88.908 365.673 84.0238 365.673 77.611V43.9435H375.851Z" fill="#262626"/>
</g>
<defs>
<clipPath id="clip0_17_12">
<rect width="375.851" height="126.364" fill="white"/>
</clipPath>
</defs>
</svg>
